<?xml version="1.0" encoding="UTF-8"?>
<svg id="_레이어_2" data-name="레이어 2" xmlns="http://www.w3.org/2000/svg" viewBox="0 0 194.1 71.12">
  <defs>
    <style>
      .cls-1 {
        fill: red;
      }

      .cls-2 {
        fill: #7f7f7f;
      }
    </style>
  </defs>
  <g id="Layer_1" data-name="Layer 1">
    <path class="cls-2" d="M16.5,65.18c.41.65.57,1.36.47,2.13-.13,1.01-.61,1.89-1.44,2.66-.84.77-2.03,1.15-3.59,1.15-1.72,0-3.02-.54-3.88-1.61-.87-1.07-1.31-2.19-1.32-3.37h2.09c.02.93.33,1.67.93,2.22.59.55,1.32.82,2.19.82s1.52-.19,1.95-.57c.43-.38.71-.83.84-1.37.1-.43.04-.8-.2-1.1-.24-.3-.57-.55-1-.76-.55-.27-1.14-.43-1.79-.48-.64-.05-1.3-.21-1.96-.48-.88-.36-1.55-.81-2.01-1.35-.46-.54-.66-1.26-.61-2.17.04-.87.44-1.71,1.21-2.52.77-.82,1.93-1.22,3.47-1.22,1.8,0,3.04.53,3.73,1.61.69,1.07,1.02,2,.99,2.79h-2.07c-.01-.68-.23-1.26-.66-1.75-.43-.49-1.09-.74-2-.74-.84,0-1.45.2-1.84.6-.38.4-.58.83-.59,1.27-.01.5.15.87.48,1.13.33.26.68.45,1.03.57.45.17,1.03.3,1.75.4.72.1,1.43.32,2.13.65.71.33,1.28.82,1.69,1.46Z"/>
    <path class="cls-2" d="M46.45,65.43l.02,5.17-2.08-.04-.02-5.05-4.67-7.94,2.31.02,3.39,5.68,3.39-5.68,2.33-.02-4.67,7.86Z"/>
    <path class="cls-2" d="M85.66,65.18c.42.65.57,1.36.47,2.13-.13,1.01-.61,1.89-1.44,2.66-.84.77-2.03,1.15-3.59,1.15-1.72,0-3.02-.54-3.88-1.61-.87-1.07-1.31-2.19-1.32-3.37h2.09c.02.93.33,1.67.93,2.22.59.55,1.32.82,2.19.82s1.52-.19,1.95-.57c.43-.38.71-.83.84-1.37.1-.43.03-.8-.2-1.1-.24-.3-.57-.55-1-.76-.55-.27-1.14-.43-1.79-.48-.64-.05-1.3-.21-1.96-.48-.88-.36-1.55-.81-2.01-1.35-.46-.54-.66-1.26-.61-2.17.04-.87.44-1.71,1.21-2.52.77-.82,1.93-1.22,3.47-1.22,1.8,0,3.04.53,3.73,1.61.69,1.07,1.02,2,1,2.79h-2.07c-.01-.68-.23-1.26-.66-1.75-.43-.49-1.09-.74-2-.74-.84,0-1.45.2-1.84.6-.38.4-.58.83-.59,1.27-.01.5.15.87.48,1.13.33.26.68.45,1.03.57.45.17,1.03.3,1.75.4.72.1,1.43.32,2.13.65.71.33,1.28.82,1.69,1.46Z"/>
    <path class="cls-2" d="M115.22,59.52v11.08l-2.09-.04-.02-11.04h-4.08v-1.91h10.31v1.91h-4.13Z"/>
    <path class="cls-2" d="M144.95,70.56v-12.95h9.07l.04,1.91h-7.04v3.43l6.71.02v1.87h-6.71v3.83h7.17l.02,1.91-9.26-.02Z"/>
    <path class="cls-2" d="M190.38,70.56l-.02-8.46-2.89,8.47h-2.3l-2.87-8.4v8.42l-2.07-.04v-12.99l2.43.02,3.65,10.27,3.62-10.27,2.45-.02v13.01l-2.01-.02Z"/>
    <path class="cls-1" d="M16.77,25.48v12.59c0,2.43.15,3.96.45,4.59.3.63.82,1.13,1.57,1.51.75.38,2.15.56,4.21.56v1.23H0v-1.23c2.08,0,3.48-.19,4.22-.58.74-.38,1.26-.89,1.56-1.51.3-.62.45-2.14.45-4.57V8.91c0-2.43-.15-3.96-.45-4.59-.3-.63-.82-1.13-1.57-1.51-.75-.38-2.15-.56-4.21-.56v-1.23h20.87c5.43,0,9.41.38,11.93,1.13,2.52.75,4.57,2.14,6.16,4.16,1.59,2.02,2.39,4.39,2.39,7.11,0,3.31-1.19,6.05-3.58,8.22-1.52,1.37-3.66,2.4-6.39,3.08l10.8,15.21c1.41,1.97,2.42,3.19,3.01,3.68.91.68,1.96,1.06,3.15,1.13v1.23h-14.15l-14.48-20.48h-2.95ZM16.77,3.45v19.68h1.89c3.07,0,5.37-.28,6.89-.85,1.52-.56,2.72-1.58,3.59-3.05.87-1.47,1.31-3.38,1.31-5.75,0-3.42-.8-5.95-2.4-7.59-1.6-1.63-4.18-2.45-7.74-2.45h-3.54Z"/>
    <path class="cls-1" d="M67.13,41.38c-3.78,3.34-7.17,5-10.17,5-1.77,0-3.24-.58-4.41-1.74-1.17-1.16-1.75-2.61-1.75-4.36,0-2.36,1.01-4.49,3.05-6.38,2.03-1.89,6.46-4.4,13.29-7.54v-3.11c0-2.34-.13-3.82-.38-4.42-.25-.61-.73-1.14-1.44-1.59-.71-.45-1.5-.68-2.39-.68-1.44,0-2.62.32-3.54.96-.57.4-.86.86-.86,1.39,0,.46.31,1.04.93,1.72.84.95,1.26,1.87,1.26,2.75,0,1.08-.4,2-1.21,2.77-.81.76-1.86,1.14-3.16,1.14-1.39,0-2.56-.42-3.5-1.26-.94-.84-1.41-1.82-1.41-2.95,0-1.59.63-3.11,1.89-4.56,1.26-1.45,3.01-2.56,5.27-3.33,2.25-.77,4.59-1.16,7.02-1.16,2.94,0,5.26.62,6.97,1.87,1.71,1.25,2.82,2.6,3.33,4.06.31.93.46,3.06.46,6.4v12.03c0,1.41.05,2.3.17,2.67.11.36.28.64.5.81.22.18.48.26.76.26.57,0,1.16-.41,1.76-1.22l.99.79c-1.1,1.64-2.25,2.82-3.43,3.56-1.18.74-2.52,1.11-4.03,1.11-1.77,0-3.15-.41-4.14-1.24-.99-.83-1.6-2.08-1.82-3.76ZM67.13,38.96v-10.37c-2.67,1.57-4.66,3.25-5.96,5.04-.86,1.19-1.29,2.4-1.29,3.61,0,1.01.36,1.91,1.09,2.68.55.6,1.33.89,2.32.89,1.1,0,2.39-.62,3.84-1.86Z"/>
    <path class="cls-1" d="M98.18,47.22l-10-22.96c-1.5-3.47-2.61-5.6-3.33-6.4-.72-.8-1.59-1.35-2.6-1.66v-1.23h16.47v1.23c-1.08.04-1.84.25-2.29.63-.44.38-.66.83-.66,1.36,0,.84.55,2.5,1.66,4.97l5.3,12.13,3.61-9.38c1.3-3.34,1.96-5.65,1.96-6.96,0-.82-.27-1.47-.81-1.96-.54-.49-1.5-.75-2.87-.79v-1.23h10.37v1.23c-1.02.11-1.84.5-2.48,1.18-.64.67-1.71,2.97-3.21,6.88l-8.85,22.96c-2.23,5.74-3.89,9.28-4.97,10.6-1.52,1.86-3.44,2.78-5.73,2.78-1.83,0-3.32-.52-4.46-1.57-1.14-1.05-1.71-2.31-1.71-3.8,0-1.28.39-2.34,1.18-3.18.78-.84,1.75-1.26,2.9-1.26s1.99.35,2.67,1.06c.67.71,1.02,1.8,1.04,3.28.02.84.12,1.38.3,1.62.18.24.43.36.76.36.53,0,1.09-.32,1.69-.96.88-.93,1.92-3.05,3.11-6.36l.96-2.58Z"/>
    <path class="cls-1" d="M131.48,18.22v21.5c0,2.08.22,3.38.66,3.91.71.82,2.01,1.19,3.91,1.13v1.19h-18.26v-1.19c1.39-.02,2.38-.18,2.97-.48.58-.3.99-.71,1.21-1.24.22-.53.33-1.63.33-3.31v-21.5h-4.5v-3.25h4.5v-2.29l-.03-1.56c0-3.18,1.17-5.83,3.5-7.95,2.33-2.12,5.48-3.18,9.46-3.18,2.72,0,4.73.51,6.05,1.52,1.31,1.02,1.97,2.14,1.97,3.38,0,.99-.41,1.86-1.23,2.58-.82.73-1.9,1.09-3.25,1.09-1.15,0-2.06-.3-2.74-.89-.67-.6-1.01-1.26-1.01-1.99,0-.2.07-.61.2-1.23.09-.38.13-.73.13-1.06,0-.46-.13-.81-.4-1.03-.35-.33-.79-.5-1.29-.5-.64,0-1.18.26-1.61.79-.43.53-.65,1.38-.65,2.55l.07,5.8v3.94h4.57v3.25h-4.57Z"/>
    <path class="cls-1" d="M170.41,14.98v24.26c0,2.36.22,3.84.66,4.42.44.59,1.34.96,2.68,1.11v1.19h-12.62v-4.14c-1.48,1.77-2.96,3.06-4.44,3.86-1.48.81-3.14,1.21-4.97,1.21s-3.3-.54-4.65-1.61c-1.36-1.07-2.27-2.32-2.73-3.76-.46-1.44-.7-3.94-.7-7.52v-12.29c0-2.34-.22-3.8-.65-4.37-.43-.57-1.33-.95-2.7-1.13v-1.23h12.63v21.17c0,2.21.11,3.64.31,4.27.21.64.54,1.13,1,1.46.45.33.98.5,1.57.5.79,0,1.51-.21,2.15-.63.88-.57,1.94-1.73,3.18-3.48v-16.57c0-2.34-.22-3.8-.65-4.37-.43-.57-1.33-.95-2.7-1.13v-1.23h12.62Z"/>
    <path class="cls-1" d="M190.36,1.03v38.5c0,2.19.25,3.58.76,4.19.51.61,1.5.96,2.98,1.04v1.19h-16.73v-1.19c1.37-.04,2.39-.44,3.05-1.19.44-.51.66-1.86.66-4.04V7.45c0-2.16-.25-3.55-.76-4.16-.51-.61-1.49-.96-2.95-1.04v-1.23h12.99Z"/>
  </g>
</svg>